# xmcd
#
# Track frame offsets:
#	151
#	9726
#	19038
#	30185
#	41773
#	51778
#	64358
#	73958
#	84373
#	99908
#	116101
#	127543
#
# Disc length: 1863 seconds
#
# Revision: 0
# Processed by: cddbd v1.4PL0 Copyright (c) Steve Scherf et al.
# Submitted via: dBpowerAMP V4.0
#
DISCID=9407450c
DTITLE=Oliver Barrett - Your Sincerely
DYEAR=1900
DGENRE=Country
TTITLE0=When Two Worlds Collide
TTITLE1=Dear Heart And Gentle People
TTITLE2=I Never Pass Here Anymore
TTITLE3=Yonder Comes A Sucker
TTITLE4=The Returning
TTITLE5=My Mama Was A Truck Diving Man
TTITLE6=I Won't Come In While He's There
TTITLE7=San Antome Rose
TTITLE8=Bottle Take Effect
TTITLE9=Ghost Riders In The Sky
TTITLE10=Memories Are Made Of This
TTITLE11=A Fallen Star
EXTD=
EXTT0=
EXTT1=
EXTT2=
EXTT3=
EXTT4=
EXTT5=
EXTT6=
EXTT7=
EXTT8=
EXTT9=
EXTT10=
EXTT11=
PLAYORDER=
